<svg width="17" height="15" viewBox="0 0 17 15" fill="none" xmlns="http://www.w3.org/2000/svg">
<path d="M7.95688 2.87161L8.29058 3.37804L8.62471 2.8719C9.87791 0.973542 11.6299 0.594895 13.0514 1.13139C14.4958 1.67655 15.6701 3.19253 15.6701 5.24398C15.6701 5.95358 15.2858 6.82286 14.6214 7.77687C13.9656 8.71854 13.0768 9.68711 12.155 10.5844C11.235 11.48 10.2922 12.295 9.53451 12.9306C9.26234 13.1589 9.01541 13.363 8.80127 13.5399C8.71692 13.6096 8.63765 13.6751 8.56393 13.7362C8.46321 13.8197 8.37023 13.8972 8.28841 13.9666C8.20217 13.8955 8.10393 13.8165 7.99779 13.7317C7.89126 13.6465 7.77456 13.5539 7.6482 13.4536C7.45027 13.2965 7.22863 13.1206 6.98518 12.9251C6.19287 12.2891 5.20404 11.4737 4.23794 10.5777C3.26991 9.67999 2.3354 8.71105 1.64572 7.76916C0.946093 6.81368 0.544531 5.94728 0.544531 5.24398C0.544531 3.19125 1.79647 1.66897 3.34111 1.12152C4.86891 0.580029 6.71195 0.982269 7.95688 2.87161Z" stroke="#00C65E" stroke-width="0.8"/>
</svg>
