<svg width="17" height="15" viewBox="0 0 17 15" fill="none" xmlns="http://www.w3.org/2000/svg">
<path d="M7.66462 3.06419L8.2903 4.01374L8.9168 3.06472C10.0858 1.29398 11.669 0.983761 12.9278 1.45884C14.2296 1.95017 15.3201 3.33121 15.3201 5.24398C15.3201 5.84291 14.988 6.63803 14.3342 7.57685C13.6965 8.49252 12.8253 9.44346 11.9108 10.3336C10.9998 11.2205 10.0644 12.0293 9.30957 12.6625C9.03844 12.8899 8.79315 13.0926 8.57928 13.2693C8.49467 13.3392 8.41497 13.4051 8.34053 13.4668C8.32179 13.4823 8.30319 13.4978 8.28478 13.5131C8.26216 13.4949 8.23931 13.4766 8.21629 13.4582C8.10765 13.3714 7.9903 13.2783 7.86371 13.1778C7.66688 13.0216 7.44772 12.8476 7.20429 12.6522C6.4145 12.0182 5.43309 11.2088 4.47593 10.3211C3.51518 9.4301 2.59889 8.47847 1.92811 7.56238C1.23867 6.62083 0.894531 5.8311 0.894531 5.24398C0.894531 3.34357 2.0492 1.95073 3.45803 1.45141C4.8353 0.963275 6.50897 1.31034 7.66462 3.06419Z" fill="#00C65E" stroke="#00C65E" stroke-width="1.5"/>
</svg>
